HIERARCHY
ROOT root
{
	OFFSET 0.000000 0.000000 0.000000
	CHANNELS 6 Xposition Yposition Zposition Zrotation Yrotation Xrotation
	JOINT lhip
	{
		OFFSET 0.058581 -0.082280 -0.017664
		CHANNELS 3 Zrotation Yrotation Xrotation
		JOINT lknee
		{
			OFFSET 0.043451 -0.386469 0.008037
			CHANNELS 3 Zrotation Yrotation Xrotation
			JOINT lankle
			{
				OFFSET -0.014790 -0.426874 -0.037428
				CHANNELS 3 Zrotation Yrotation Xrotation
				JOINT ltoe
				{
					OFFSET 0.041054 -0.060286 0.122042
					CHANNELS 3 Zrotation Yrotation Xrotation
					End Site
					{
						OFFSET 0.000000 0.000000 0.000000
					}
				}
			}
		}
	}
	JOINT rhip
	{
		OFFSET -0.060310 -0.090513 -0.013543
		CHANNELS 3 Zrotation Yrotation Xrotation
		JOINT rknee
		{
			OFFSET -0.043257 -0.383688 -0.004843
			CHANNELS 3 Zrotation Yrotation Xrotation
			JOINT rankle
			{
				OFFSET 0.019056 -0.420046 -0.034562
				CHANNELS 3 Zrotation Yrotation Xrotation
				JOINT rtoe
				{
					OFFSET -0.034840 -0.062106 0.130323
					CHANNELS 3 Zrotation Yrotation Xrotation
					End Site
					{
						OFFSET 0.000000 0.000000 0.000000
					}
				}
			}
		}
	}
	JOINT lowerback
	{
		OFFSET 0.004439 0.124404 -0.038385
		CHANNELS 3 Zrotation Yrotation Xrotation
		JOINT upperback
		{
			OFFSET 0.004488 0.137956 0.026820
			CHANNELS 3 Zrotation Yrotation Xrotation
			JOINT chest
			{
				OFFSET -0.002265 0.056032 0.002855
				CHANNELS 3 Zrotation Yrotation Xrotation
				JOINT lowerneck
				{
					OFFSET -0.013390 0.211636 -0.033468
					CHANNELS 3 Zrotation Yrotation Xrotation
					JOINT upperneck
					{
						OFFSET 0.010113 0.088937 0.050410
						CHANNELS 3 Zrotation Yrotation Xrotation
						End Site
						{
							OFFSET 0.000000 0.000000 0.000000
						}
					}
				}
				JOINT lclavicle
				{
					OFFSET 0.071702 0.114000 -0.018898
					CHANNELS 3 Zrotation Yrotation Xrotation
					JOINT lshoulder
					{
						OFFSET 0.122921 0.045205 -0.019046
						CHANNELS 3 Zrotation Yrotation Xrotation
						JOINT lelbow
						{
							OFFSET 0.255332 -0.015649 -0.022946
							CHANNELS 3 Zrotation Yrotation Xrotation
							JOINT lwrist
							{
								OFFSET 0.265709 0.012698 -0.007375
								CHANNELS 3 Zrotation Yrotation Xrotation
								End Site
								{
									OFFSET 0.000000 0.000000 0.000000
								}
							}
						}
					}
				}
				JOINT rclavicle
				{
					OFFSET -0.082954 0.112472 -0.023707
					CHANNELS 3 Zrotation Yrotation Xrotation
					JOINT rshoulder
					{
						OFFSET -0.113228 0.046853 -0.008472
						CHANNELS 3 Zrotation Yrotation Xrotation
						JOINT relbow
						{
							OFFSET -0.260127 -0.014369 -0.031269
							CHANNELS 3 Zrotation Yrotation Xrotation
							JOINT rwrist
							{
								OFFSET -0.269108 0.006794 -0.006027
								CHANNELS 3 Zrotation Yrotation Xrotation
								End Site
								{
									OFFSET 0.000000 0.000000 0.000000
								}
							}
						}
					}
				}
			}
		}
	}
}
MOTION
Frames: 10
Frame Time: 0.033333
-0.065571 0.285980 0.980222 87.345374 -1.604765 81.638987 1.823074 2.257219 -5.799192 -4.725731 0.370784 24.235927 -0.442686 9.550678 -11.316563 0.000000 -0.000000 0.000000 -4.922663 -2.781263 -9.525930 -0.846944 0.711685 28.788933 4.210328 -7.045480 -11.438622 0.000000 -0.000000 0.000000 1.223775 2.358159 23.623408 -2.210215 -1.374776 4.480451 0.020291 1.280906 -1.050722 -1.499469 1.082258 -4.852252 2.199961 -2.514629 10.156210 -14.518306 -35.466408 -4.556787 -18.191774 -32.072147 -1.459550 12.364318 -36.806851 -43.196322 4.680037 -15.048990 -45.438988 13.773769 40.389873 0.552315 9.835427 37.125763 -12.705557 -11.850889 17.706679 -41.177637 14.412211 7.042809 -23.358008 
-0.065728 0.285838 0.980239 87.324510 -1.577506 81.629408 1.856985 2.327739 -5.788320 -4.735245 0.313402 24.251804 -0.451994 9.572154 -11.282602 0.000000 -0.000000 0.000000 -4.851822 -2.900650 -9.596022 -0.861056 0.819066 28.914981 4.125947 -6.964451 -11.452137 0.000000 -0.000000 0.000000 1.285713 2.366393 23.704156 -2.180170 -1.369308 4.464475 -0.051964 1.252697 -1.034089 -1.397648 1.218617 -4.789411 2.109687 -2.722998 10.178413 -14.578365 -35.369812 -4.412139 -17.847483 -32.034600 -1.551245 12.184579 -37.377781 -42.537921 3.675016 -15.273080 -45.888439 13.729695 40.293312 0.503761 9.919647 37.239308 -12.632735 -12.174369 17.927602 -41.012846 14.605701 6.981964 -23.897553 
-0.065866 0.285631 0.980331 87.280272 -1.568577 81.644019 1.889193 2.350951 -5.781911 -4.712587 0.401316 24.217177 -0.384994 9.641139 -11.294723 0.000000 -0.000000 0.000000 -4.800894 -2.926426 -9.685815 -0.856577 0.888202 29.130577 4.080856 -6.926182 -11.331091 0.000000 -0.000000 0.000000 1.263198 2.387841 23.749200 -2.165508 -1.334972 4.425958 -0.044379 1.230260 -1.011365 -1.395149 1.182289 -4.720558 2.083178 -2.721487 10.219982 -14.511976 -35.231259 -4.362363 -18.024569 -31.839923 -1.291488 12.742214 -38.455475 -42.598674 3.680488 -15.022941 -46.286387 13.640402 40.181162 0.480786 10.238750 37.178265 -12.281236 -12.649293 18.725005 -40.978424 14.399093 6.867576 -24.167636 
-0.065550 0.285522 0.980585 87.208451 -1.553214 81.714035 1.931227 2.375557 -5.712089 -4.739947 0.397698 24.005357 -0.367040 9.683631 -11.207889 0.000000 -0.000000 0.000000 -4.775641 -2.940616 -9.664725 -0.855181 0.916899 28.961069 4.093154 -6.915778 -11.176879 0.000000 -0.000000 0.000000 1.203579 2.333404 23.697185 -2.129165 -1.331371 4.359545 -0.024959 1.257734 -0.975963 -1.439357 1.267271 -4.646162 2.061951 -2.644940 10.170995 -14.586611 -34.737760 -4.277335 -18.560712 -31.437192 -0.499502 13.649564 -41.000994 -42.588610 5.141983 -14.239149 -46.398701 13.722772 39.811266 0.468451 10.993473 37.124183 -11.277449 -13.465964 20.921131 -40.317196 13.016495 6.535650 -23.543130 
-0.065228 0.285289 0.980922 87.105903 -1.509278 81.823842 2.014524 2.415780 -5.698343 -4.761356 0.409900 23.815366 -0.359021 9.724056 -11.064248 0.000000 -0.000000 0.000000 -4.676606 -2.898792 -9.682447 -0.880057 0.959698 28.783141 4.134601 -6.879834 -11.129261 0.000000 -0.000000 0.000000 1.202457 2.299914 23.534873 -2.105319 -1.301285 4.392158 -0.064136 1.213843 -0.952713 -1.461413 1.352770 -4.597585 2.100491 -2.509665 9.949126 -14.730234 -34.286184 -4.101202 -18.721047 -30.637363 0.286891 14.660570 -44.057740 -42.649391 6.964483 -13.255255 -46.429513 13.927021 39.525650 0.549094 11.788079 36.994964 -10.193147 -14.538891 23.218425 -39.591170 11.561757 6.129872 -22.480459 
-0.064459 0.285043 0.981598 86.992631 -1.499882 82.005210 2.050308 2.339120 -5.626459 -4.760194 0.531894 23.463678 -0.396980 9.709127 -11.035523 0.000000 -0.000000 0.000000 -4.638504 -2.900904 -9.663260 -0.970969 0.885184 28.444024 4.150203 -6.733866 -10.919997 0.000000 -0.000000 0.000000 1.115833 2.275213 23.279214 -2.049542 -1.277781 4.342580 -0.037565 1.238131 -0.860530 -1.494205 1.348580 -4.537483 2.021433 -2.379515 9.712147 -14.766708 -33.337673 -3.764321 -20.243037 -29.682401 1.815850 18.203545 -48.778293 -43.320165 8.639108 -12.577780 -47.136065 13.742372 38.700979 0.455393 13.903291 36.733205 -8.130884 -16.719746 27.592517 -38.482230 9.760307 5.975153 -21.709065 
-0.063334 0.284641 0.982674 86.821306 -1.513039 82.443000 2.052002 2.130983 -5.683651 -4.722432 0.834865 22.876724 -0.301531 9.729621 -10.826275 0.000000 -0.000000 0.000000 -4.662070 -2.795504 -9.780778 -1.036170 0.632209 27.909204 4.229772 -6.449505 -10.682779 0.000000 -0.000000 0.000000 0.971505 2.202989 22.873929 -2.023067 -1.254139 4.112452 -0.078693 1.369628 -0.943860 -1.446871 1.376032 -4.335372 2.056823 -2.214595 9.712691 -14.948597 -32.038832 -3.175339 -22.510013 -28.576715 4.072369 23.100200 -54.158401 -44.890501 10.424108 -11.941242 -48.227784 13.848018 37.527752 0.625782 16.942742 36.001948 -5.042139 -19.895861 33.429596 -37.799783 7.857982 6.140743 -22.268836 
-0.061192 0.283822 0.984088 86.464342 -1.533218 82.858867 2.064647 2.023672 -5.521154 -4.692669 1.218530 22.090730 -0.098153 9.670397 -10.529600 0.000000 -0.000000 0.000000 -4.666932 -2.569448 -9.730347 -1.114296 0.394511 27.246158 4.302265 -6.154448 -10.504680 0.000000 -0.000000 0.000000 0.846698 2.282670 22.159139 -1.918305 -1.058806 4.194447 -0.209945 1.504698 -0.852819 -1.475943 1.372076 -4.128242 2.251236 -2.246219 9.200622 -15.374154 -30.659172 -2.477749 -24.488562 -27.453290 6.405860 28.689607 -60.075354 -46.904561 11.812397 -11.484191 -49.386865 13.930609 36.023914 0.921014 20.686526 34.657272 -1.327245 -24.704628 40.631359 -38.890100 5.475522 6.250574 -23.731537 
-0.058982 0.282959 0.985794 86.353354 -1.516670 83.159846 2.052381 1.798722 -5.275199 -4.589552 1.556007 21.360078 0.036101 9.490653 -10.384550 0.000000 -0.000000 0.000000 -4.622403 -2.484517 -9.531478 -1.361351 -0.015063 26.550409 4.473639 -5.731186 -10.280856 0.000000 -0.000000 0.000000 0.747782 2.389361 21.591325 -1.766248 -0.955200 4.262235 -0.249134 1.540191 -0.697701 -1.467595 1.311819 -3.961270 2.329103 -2.083624 8.663887 -15.796889 -29.133973 -1.912254 -27.442548 -26.322247 8.982624 36.899173 -65.891078 -51.632432 13.710433 -10.586032 -49.996929 14.101633 34.191821 0.942582 24.978764 33.096674 2.669965 -30.727675 48.159726 -40.799364 2.809566 6.163274 -23.988984 
-0.056271 0.281598 0.987311 86.331465 -1.685302 84.167797 1.944151 0.918244 -5.518156 -5.247441 1.447657 19.952638 1.283288 10.575925 -9.326220 0.000000 -0.000000 0.000000 -5.002910 -2.031689 -9.918780 -0.562748 0.046269 25.612319 3.687668 -6.767817 -9.923935 0.000000 -0.000000 0.000000 0.120044 2.864923 19.583098 -0.786672 -0.971277 5.930733 -0.662821 1.318980 -1.740511 -1.707584 0.580498 -2.800282 2.517677 -1.213353 7.230743 -17.340041 -27.264829 1.219672 -29.849673 -24.711787 11.496140 53.701524 -72.829936 -61.779798 19.257953 -7.056208 -53.959799 15.347876 31.624875 2.364813 29.647582 30.718031 7.697608 -41.411619 57.265778 -44.494548 0.924147 6.926351 -28.577910 
